<?xml version="1.0" standalone="no"?><!DOCTYPE svg PUBLIC "-//W3C//DTD SVG 1.1//EN" "http://www.w3.org/Graphics/SVG/1.1/DTD/svg11.dtd"><svg class="icon" width="200px" height="200.00px" viewBox="0 0 1024 1024" version="1.1" xmlns="http://www.w3.org/2000/svg"><path fill="#666666" d="M958.8 402.6c-1.8-18.6-8.9-36.4-20.7-51.6-19-24.3-47.6-38.2-78.5-38.2H433.1c-1.8 0-3.6 0.3-5.4 0.5l-104.5 2.1-13.4-54c-16.5-66.6-76-113.2-144.6-113.2H97c-19.2 0-34.7 15.5-34.7 34.7s15.5 34.7 34.7 34.7h68.2c36.6 0 68.4 24.8 77.2 60.4l19.9 80.5c0 0.1 0 0.3 0.1 0.4l57.7 233c15.5 62.6 71.4 106.4 136 106.4H782c64.5 0 120.4-43.8 135.9-106.4l38.5-155.3c2.8-11.2 3.6-22.7 2.4-34zM415.3 737.2c-40.5 0-73.4 32.8-73.4 73.4 0 40.5 32.8 73.4 73.4 73.4 40.5 0 73.4-32.8 73.4-73.4-0.1-40.6-32.9-73.4-73.4-73.4zM809.8 737.2c-40.5 0-73.4 32.8-73.4 73.4 0 40.5 32.8 73.4 73.4 73.4 40.5 0 73.4-32.8 73.4-73.4 0-40.6-32.9-73.4-73.4-73.4z" /></svg>